<svg id="Group_25230" data-name="Group 25230" xmlns="http://www.w3.org/2000/svg" width="58.554" height="48.992" viewBox="0 0 58.554 48.992">
  <path id="Path_29472" data-name="Path 29472" d="M31,48.6,44.283,24.879a.791.791,0,0,0,0-.769L31,.389A.742.742,0,0,0,30.353,0H22.939a.742.742,0,0,0-.646.389L9.007,24.109a.791.791,0,0,0,0,.769L22.293,48.6a.742.742,0,0,0,.646.389h7.414A.742.742,0,0,0,31,48.6" transform="translate(2.631)" fill="#937eec"/>
  <path id="Path_29474" data-name="Path 29474" d="M38.176,48.6l13.7-23.725a.77.77,0,0,0,0-.769L38.176.389A.769.769,0,0,0,37.511,0H25.974a.769.769,0,0,1,.666.389L40.334,24.109a.77.77,0,0,1,0,.769L26.64,48.6a.769.769,0,0,1-.652.385H37.525a.769.769,0,0,0,.652-.385" transform="translate(6.576)" fill="#e8e8e8"/>
  <path id="Path_29475" data-name="Path 29475" d="M13.8,48.6.1,24.879a.77.77,0,0,1,0-.769L13.8.389A.769.769,0,0,1,14.466,0H26a.769.769,0,0,0-.666.389L11.643,24.109a.77.77,0,0,0,0,.769L25.337,48.6a.769.769,0,0,0,.652.385H14.452A.769.769,0,0,1,13.8,48.6" transform="translate(0)" fill="#dedede"/>
  <rect id="Rectangle_5725" data-name="Rectangle 5725" width="58.554" height="48.992" fill="none"/>
</svg>
